<?xml version="1.0" encoding="UTF-8"?>
<svg id="Layer_1" data-name="Layer 1" xmlns="http://www.w3.org/2000/svg" viewBox="680 620 600 500">
  <defs>
    <style>
      .cls-1 { fill: #8c8b8b; }
      .cls-2 { fill: #aaa; }
      .cls-3 { fill: #fff; }
      .cls-4 { fill: #cccbcb; }
    </style>
  </defs>
  <path class="cls-1" d="M1140.82,689.09v326.58c40.27-42.6,65.01-100.04,65.01-163.29s-24.74-120.69-65.01-163.29Z"/>
  <path class="cls-3" d="M730.17,852.38c0,126.55,98.86,229.98,223.56,237.36v-204.68c-12.6-5.51-21.41-18.06-21.41-32.69s8.81-27.18,21.41-32.69v-204.68c-124.7,7.38-223.56,110.81-223.56,237.36Z"/>
  <rect class="cls-2" x="1061.55" y="663.6" width="50.74" height="377.57"/>
  <path class="cls-4" d="M982.27,819.69c12.59,5.51,21.4,18.06,21.4,32.68s-8.81,27.18-21.4,32.69v195.84h50.73v-457.04h-50.73v195.84Z"/>
</svg>
