<svg width="243" height="243" viewBox="0 0 243 243" fill="none" xmlns="http://www.w3.org/2000/svg">
<path d="M210.225 37.8805V204.885C230.67 183.098 243.23 153.726 243.23 121.385C243.23 89.0443 230.67 59.6723 210.225 37.8856V37.8805Z" fill="#666667"/>
<path d="M0 121.38C0 186.097 50.194 238.985 113.5 242.76V138.096C107.103 135.28 102.631 128.858 102.631 121.38C102.631 113.902 107.103 107.48 113.5 104.664V0C50.1889 3.77479 0 56.6627 0 121.38Z" fill="black"/>
<path d="M195.155 24.8474H169.397V217.923H195.155V24.8474Z" fill="#49494A"/>
<path d="M128.57 104.669C134.967 107.485 139.439 113.902 139.439 121.385C139.439 128.868 134.967 135.28 128.57 138.101V238.245H154.328V4.52966H128.57V104.674V104.669Z" fill="#282827"/>
</svg>
