<svg width="243" height="243" viewBox="0 0 243 243" fill="none" xmlns="http://www.w3.org/2000/svg">
<path d="M209.986 37.8862V204.884C230.578 183.1 243.229 153.728 243.229 121.385C243.229 89.0419 230.578 59.6698 209.986 37.8862Z" fill="#8C8B8B"/>
<path d="M0 121.385C0 186.096 50.5523 238.986 114.318 242.759V138.096C107.875 135.278 103.37 128.861 103.37 121.38C103.37 113.899 107.875 107.481 114.318 104.664V0C50.5523 3.77378 0 56.6629 0 121.375V121.385Z" fill="white"/>
<path d="M195.399 24.8519H169.453V217.923H195.399V24.8519Z" fill="#AAAAAA"/>
<path d="M128.911 104.669C135.349 107.486 139.854 113.904 139.854 121.38C139.854 128.856 135.349 135.278 128.911 138.096V238.239H154.852V4.53064H128.911V104.674V104.669Z" fill="#CCCBCB"/>
</svg>
