<?xml version="1.0" encoding="UTF-8"?>
<svg id="Layer_1" data-name="Layer 1" xmlns="http://www.w3.org/2000/svg" viewBox="680 620 600 500">
  <defs>
    <style>
      .cls-1 { fill: #282827; }
      .cls-2 { fill: #49494a; }
      .cls-3 { fill: #666667; }
    </style>
  </defs>
  <path class="cls-3" d="M1141.17,688.32v327.39c40.37-42.71,65.17-100.29,65.17-163.69s-24.8-120.98-65.17-163.69Z"/>
  <path fill="#000000" d="M729.51,852.01c0,126.87,99.11,230.55,224.11,237.95v-205.18c-12.6-5.52-21.46-18.11-21.46-32.77s8.83-27.25,21.46-32.77v-205.18c-125.01,7.4-224.11,111.08-224.11,237.95Z"/>
  <rect class="cls-2" x="1061.7" y="662.77" width="50.86" height="378.5"/>
  <path class="cls-1" d="M982.23,819.25c12.63,5.52,21.46,18.1,21.46,32.77s-8.83,27.24-21.46,32.77v196.32h50.86v-458.17h-50.86v196.32Z"/>
</svg>
