<?xml version="1.0" encoding="UTF-8"?>
<svg id="Layer_1" data-name="Layer 1" xmlns="http://www.w3.org/2000/svg" viewBox="500 620 1000 800">
  <defs>
    <style>
      .cls-1 {
        fill: #282827;
      }

      .cls-2 {
        font-family: Suprema-SemiBold, Suprema;
        font-size: 65.41px;
        font-weight: 600;
      }

      .cls-2, .cls-3 {
        fill: #666667;
      }l

      .cls-4 {
        fill: #49494a;
      }
    </style>
  </defs>
  <path class="cls-3" d="M1141.17,688.32v327.39c40.37-42.71,65.17-100.29,65.17-163.69s-24.8-120.98-65.17-163.69Z"/>
  <path d="M729.51,852.01c0,126.87,99.11,230.55,224.11,237.95v-205.18c-12.63-5.52-21.46-18.11-21.46-32.77s8.83-27.25,21.46-32.77v-205.18c-125.01,7.4-224.11,111.08-224.11,237.95Z"/>
  <rect class="cls-4" x="1061.7" y="662.77" width="50.86" height="378.5"/>
  <path class="cls-1" d="M982.23,819.25c12.63,5.52,21.46,18.1,21.46,32.77s-8.83,27.24-21.46,32.77v196.32h50.86v-458.17h-50.86v196.32Z"/>
  <path d="M609.42,1165.08l-3.29,15.51h-37.49l-21.74,102.71h-18.1l21.74-102.71h-26.44l3.29-15.51h26.44l1.65-7.4c1.88-9.01,4.21-16.94,6.99-23.8,2.78-6.85,6.17-12.57,10.17-17.16,4-4.58,8.66-8.05,13.98-10.4,5.33-2.35,11.52-3.53,18.57-3.53,2.74,0,5.31.12,7.7.35,2.39.24,4.44.51,6.17.82,2.04.31,3.88.71,5.52,1.18l-3.17,14.81c-1.57-.24-3.17-.51-4.82-.82-1.41-.16-3-.33-4.76-.53-1.76-.19-3.51-.29-5.23-.29-4.47,0-8.4.67-11.81,2-3.41,1.34-6.43,3.54-9.05,6.64-2.63,3.09-4.92,7.15-6.87,12.16-1.96,5.02-3.72,11.21-5.29,18.57l-1.65,7.4h37.49Z"/>
  <path d="M620.82,1283.31l37.84-178.16h18.1l-37.84,178.16h-18.1Z"/>
  <path d="M732.7,1285.66c-7.37,0-14.22-1.14-20.57-3.41-6.35-2.27-11.87-5.52-16.57-9.75-4.7-4.23-8.4-9.35-11.11-15.33-2.7-6-4.05-12.71-4.05-20.16,0-6.27.86-12.46,2.59-18.57,1.72-6.11,4.17-11.91,7.35-17.39,3.17-5.48,6.99-10.58,11.46-15.28s9.42-8.75,14.87-12.17c5.44-3.4,11.34-6.07,17.69-7.99,6.35-1.92,12.96-2.88,19.86-2.88,9.17,0,17.37,1.84,24.62,5.52,7.25,3.69,13.14,8.7,17.69,15.04,4.54,6.35,7.5,13.73,8.87,22.16,1.37,8.42.8,17.37-1.7,26.85h-104.71c-.31,5.57.31,10.68,1.88,15.33,1.57,4.66,3.88,8.66,6.93,11.99,3.06,3.33,6.78,5.92,11.16,7.76,4.39,1.84,9.28,2.76,14.69,2.76,6.03,0,11.42-.86,16.16-2.59,4.74-1.72,8.79-3.6,12.16-5.64,3.92-2.43,7.36-5.17,10.34-8.23h21.27c-3.84,5.96-8.66,11.28-14.46,15.98-2.51,2.04-5.33,4-8.46,5.88-3.14,1.88-6.62,3.58-10.46,5.11-3.84,1.52-8.05,2.74-12.63,3.64-4.58.9-9.54,1.35-14.87,1.35ZM753.26,1178.24c-5.41,0-10.73.94-15.98,2.82-5.25,1.88-10.15,4.52-14.69,7.94-4.55,3.4-8.58,7.48-12.1,12.22-3.53,4.74-6.31,9.93-8.34,15.57h85.67c.71-4.94.31-9.74-1.18-14.39-1.49-4.66-3.82-8.78-6.99-12.34-3.17-3.56-7.01-6.42-11.52-8.57-4.51-2.16-9.46-3.23-14.87-3.23Z"/>
  <path class="cls-3" d="M827.54,1283.31h-23.15l62.17-62.52-32.32-55.7h20.33l24.8,42.9,42.9-42.9h23.15l-55.82,55.7,35.61,62.52h-20.33l-28.21-49.48-49.12,49.48Z"/>
  <path d="M952.23,1345.83h-18.1l38.43-180.75h18.1l-5.17,24.8c3.29-5.01,7.29-9.52,11.99-13.51,1.96-1.72,4.19-3.39,6.7-4.99,2.51-1.61,5.27-3.06,8.28-4.35,3.02-1.29,6.27-2.33,9.76-3.11,3.48-.78,7.23-1.18,11.22-1.18,7.36,0,14.16,1.19,20.39,3.58,6.23,2.39,11.62,5.72,16.16,9.99,4.54,4.27,8.09,9.38,10.63,15.33,2.55,5.96,3.82,12.5,3.82,19.63,0,6.74-.9,13.28-2.7,19.63-1.81,6.35-4.31,12.26-7.52,17.75-3.22,5.49-7.03,10.5-11.46,15.04-4.42,4.55-9.28,8.44-14.57,11.69-5.28,3.25-10.91,5.78-16.86,7.58-5.96,1.8-12.03,2.7-18.22,2.7-4.23,0-8.07-.43-11.52-1.29-3.45-.86-6.52-2-9.22-3.41-2.71-1.41-5.11-3.04-7.23-4.88-2.12-1.84-3.92-3.7-5.41-5.58-3.61-4.47-6.31-9.56-8.11-15.28l-19.39,90.61ZM1031.32,1178.24c-7.29,0-14.22,1.59-20.8,4.76-6.58,3.18-12.34,7.41-17.28,12.69-4.94,5.29-8.87,11.34-11.81,18.16-2.93,6.82-4.4,13.87-4.4,21.15,0,5.17.84,9.91,2.52,14.22,1.69,4.31,4.06,8.01,7.11,11.1,3.06,3.1,6.7,5.51,10.93,7.23,4.23,1.73,8.93,2.59,14.1,2.59,7.29,0,14.2-1.59,20.74-4.76,6.54-3.18,12.32-7.39,17.34-12.64,5.01-5.25,8.99-11.28,11.93-18.1,2.93-6.82,4.4-13.87,4.4-21.15,0-5.25-.84-10.03-2.52-14.34-1.69-4.31-4.06-8.01-7.11-11.1-3.06-3.1-6.72-5.5-10.99-7.23-4.27-1.72-8.99-2.59-14.16-2.59Z"/>
  <path d="M1223.7,1165.08h18.1l-25.03,118.23h-18.1l5.17-24.8c-3.29,5.1-7.29,9.64-11.99,13.63-2.04,1.73-4.29,3.39-6.76,5-2.47,1.6-5.21,3.04-8.23,4.29-3.02,1.26-6.27,2.27-9.76,3.06-3.48.78-7.23,1.18-11.22,1.18-7.37,0-14.16-1.19-20.39-3.58-6.23-2.39-11.62-5.72-16.16-9.99-4.55-4.27-8.09-9.38-10.63-15.33-2.55-5.95-3.82-12.49-3.82-19.63,0-6.74.9-13.28,2.7-19.63,1.8-6.35,4.31-12.26,7.52-17.75,3.21-5.48,7.03-10.5,11.46-15.04,4.42-4.54,9.28-8.44,14.57-11.69,5.28-3.25,10.91-5.78,16.86-7.58,5.95-1.8,12.02-2.7,18.22-2.7,4.23,0,8.05.43,11.46,1.29,3.4.86,6.48,2.02,9.22,3.46,2.74,1.45,5.15,3.1,7.23,4.94,2.07,1.84,3.89,3.7,5.46,5.58,3.6,4.47,6.3,9.52,8.11,15.16l5.99-28.09ZM1158.01,1270.14c7.29,0,14.22-1.59,20.8-4.76,6.58-3.18,12.34-7.41,17.28-12.69,4.94-5.29,8.87-11.34,11.81-18.16,2.93-6.82,4.4-13.87,4.4-21.15,0-5.17-.84-9.91-2.52-14.22-1.69-4.31-4.06-8.01-7.11-11.1-3.06-3.1-6.7-5.5-10.93-7.23-4.23-1.72-8.93-2.59-14.1-2.59-7.29,0-14.2,1.59-20.74,4.76-6.54,3.18-12.33,7.39-17.34,12.64-5.02,5.25-8.99,11.28-11.93,18.1-2.93,6.82-4.4,13.87-4.4,21.15,0,5.25.84,10.03,2.52,14.34,1.69,4.31,4.06,8.01,7.11,11.1,3.06,3.1,6.72,5.51,10.99,7.23,4.27,1.73,8.99,2.59,14.16,2.59Z"/>
  <path d="M1294.92,1270.14c3.68,0,7.66-.35,11.93-1.06,4.27-.71,8.23-1.96,11.87-3.76,3.64-1.8,6.66-4.23,9.04-7.29,2.39-3.06,3.59-6.97,3.59-11.75,0-2.19-.47-4.11-1.41-5.76-.94-1.65-2.49-3.07-4.64-4.29-2.16-1.22-5.04-2.28-8.64-3.18-3.61-.9-8.03-1.7-13.28-2.41-13.09-1.65-23.15-4.88-30.2-9.69-7.05-4.82-10.58-11.62-10.58-20.39,0-6.66,1.53-12.38,4.58-17.16,3.06-4.78,7.07-8.7,12.05-11.75,4.97-3.06,10.61-5.31,16.92-6.76,6.3-1.45,12.75-2.17,19.33-2.17,5.09,0,9.59.43,13.51,1.29,3.92.86,7.35,1.98,10.28,3.35,2.94,1.37,5.42,2.93,7.46,4.7,2.04,1.76,3.72,3.58,5.05,5.46,3.13,4.31,4.97,9.25,5.52,14.81h-18.8c-.47-2.66-1.65-5.01-3.53-7.05-1.57-1.8-3.96-3.43-7.17-4.88-3.22-1.45-7.64-2.17-13.28-2.17-3.22,0-6.74.29-10.58.88-3.84.58-7.4,1.68-10.69,3.29-3.29,1.6-6.05,3.76-8.29,6.46-2.23,2.71-3.35,6.17-3.35,10.4s1.98,7.35,5.93,9.81c3.96,2.47,10.36,4.22,19.22,5.23,6.66.79,12.65,1.94,17.98,3.46,5.33,1.53,9.87,3.55,13.63,6.05,3.76,2.51,6.66,5.57,8.7,9.17,2.04,3.61,3.06,7.87,3.06,12.81,0,7.37-1.61,13.57-4.82,18.63-3.22,5.05-7.46,9.15-12.75,12.28-5.29,3.14-11.28,5.41-17.99,6.82-6.69,1.41-13.57,2.12-20.62,2.12-5.8,0-10.89-.43-15.28-1.29-4.39-.86-8.19-1.98-11.4-3.35-3.22-1.37-5.92-2.93-8.11-4.7-2.2-1.76-4-3.58-5.41-5.46-3.29-4.31-5.1-9.24-5.41-14.81h18.8c.71,2.67,2.15,5.02,4.35,7.05.94.86,2.1,1.73,3.47,2.59,1.37.86,2.99,1.63,4.87,2.29,1.88.66,4.06,1.19,6.52,1.58,2.47.39,5.31.59,8.52.59Z"/>
  <path d="M1413.5,1270.14c3.68,0,7.66-.35,11.93-1.06,4.27-.71,8.23-1.96,11.87-3.76,3.64-1.8,6.66-4.23,9.04-7.29,2.39-3.06,3.59-6.97,3.59-11.75,0-2.19-.47-4.11-1.41-5.76-.94-1.65-2.49-3.07-4.64-4.29-2.16-1.22-5.04-2.28-8.64-3.18-3.61-.9-8.03-1.7-13.28-2.41-13.09-1.65-23.15-4.88-30.2-9.69-7.05-4.82-10.58-11.62-10.58-20.39,0-6.66,1.53-12.38,4.58-17.16,3.06-4.78,7.07-8.7,12.05-11.75,4.97-3.06,10.61-5.31,16.92-6.76,6.3-1.45,12.75-2.17,19.33-2.17,5.09,0,9.59.43,13.51,1.29,3.92.86,7.35,1.98,10.28,3.35,2.94,1.37,5.42,2.93,7.46,4.7,2.04,1.76,3.72,3.58,5.05,5.46,3.13,4.31,4.97,9.25,5.52,14.81h-18.8c-.47-2.66-1.65-5.01-3.53-7.05-1.57-1.8-3.96-3.43-7.17-4.88-3.22-1.45-7.64-2.17-13.28-2.17-3.22,0-6.74.29-10.58.88-3.84.58-7.4,1.68-10.69,3.29-3.29,1.6-6.05,3.76-8.29,6.46-2.23,2.71-3.35,6.17-3.35,10.4s1.98,7.35,5.93,9.81c3.96,2.47,10.36,4.22,19.22,5.23,6.66.79,12.65,1.94,17.98,3.46,5.33,1.53,9.87,3.55,13.63,6.05,3.76,2.51,6.66,5.57,8.7,9.17,2.04,3.61,3.06,7.87,3.06,12.81,0,7.37-1.61,13.57-4.82,18.63-3.22,5.05-7.46,9.15-12.75,12.28-5.29,3.14-11.28,5.41-17.99,6.82-6.69,1.41-13.57,2.12-20.62,2.12-5.8,0-10.89-.43-15.28-1.29-4.39-.86-8.19-1.98-11.4-3.35-3.22-1.37-5.92-2.93-8.11-4.7-2.2-1.76-4-3.58-5.41-5.46-3.29-4.31-5.1-9.24-5.41-14.81h18.8c.71,2.67,2.15,5.02,4.35,7.05.94.86,2.1,1.73,3.47,2.59,1.37.86,2.99,1.63,4.87,2.29,1.88.66,4.06,1.19,6.52,1.58,2.47.39,5.31.59,8.52.59Z"/>
  <polygon class="cls-3" points="880.49 1209.75 818.96 1102.9 798.03 1102.9 867.68 1222.56 880.49 1209.75"/>
  <polygon class="cls-3" points="866.56 1220.79 742.46 1345.83 765.25 1345.83 876.66 1233.83 866.56 1220.79"/>
  <text class="cls-2" transform="translate(1150.45 1367.03)"><tspan x="0" y="0">by OneFit</tspan></text>
</svg>