<?xml version="1.0" encoding="UTF-8"?>
<svg id="Layer_1" data-name="Layer 1" xmlns="http://www.w3.org/2000/svg" viewBox="500 620 1000 800">
  <defs>
    <style>
      .cls-1, .cls-2 {
        fill: #8c8b8b;
      }

      .cls-3 {
        fill: #aaa;
      }

      .cls-4 {
        fill: #fff;
      }

      .cls-5 {
        fill: #cccbcb;
      }

      .cls-2 {
        font-family: Suprema-SemiBold, Suprema;
        font-size: 65.25px;
        font-weight: 600;
      }
    </style>
  </defs>
  <g>
    <path class="cls-1" d="M1140.82,689.09v326.58c40.27-42.6,65.01-100.04,65.01-163.29s-24.74-120.69-65.01-163.29Z"/>
    <path class="cls-4" d="M730.17,852.38c0,126.55,98.86,229.98,223.56,237.36v-204.68c-12.6-5.51-21.41-18.06-21.41-32.69s8.81-27.18,21.41-32.69v-204.68c-124.7,7.38-223.56,110.81-223.56,237.36Z"/>
    <rect class="cls-3" x="1061.55" y="663.6" width="50.74" height="377.57"/>
    <path class="cls-5" d="M982.27,819.69c12.59,5.51,21.4,18.06,21.4,32.68s-8.81,27.18-21.4,32.69v195.84h50.73v-457.04h-50.73v195.84Z"/>
  </g>
  <g>
    <g>
      <path class="cls-4" d="M610.38,1164.67l-3.28,15.47h-37.4l-21.69,102.46h-18.05l21.69-102.46h-26.38l3.28-15.47h26.38l1.64-7.39c1.88-8.98,4.2-16.9,6.98-23.74,2.77-6.84,6.15-12.54,10.14-17.12,3.99-4.57,8.64-8.03,13.95-10.37,5.31-2.34,11.49-3.52,18.52-3.52,2.73,0,5.29.12,7.68.35,2.38.23,4.43.51,6.15.82,2.03.31,3.87.7,5.51,1.17l-3.17,14.77c-1.56-.23-3.17-.51-4.81-.82-1.41-.15-2.99-.33-4.75-.53-1.76-.19-3.5-.29-5.22-.29-4.45,0-8.38.67-11.78,1.99-3.4,1.33-6.41,3.54-9.03,6.63-2.62,3.09-4.9,7.13-6.86,12.13-1.96,5-3.71,11.18-5.28,18.52l-1.64,7.39h37.4Z"/>
      <path class="cls-4" d="M621.75,1282.61l37.75-177.72h18.05l-37.75,177.72h-18.05Z"/>
      <path class="cls-4" d="M733.36,1284.95c-7.35,0-14.19-1.13-20.52-3.4-6.33-2.26-11.84-5.51-16.53-9.73-4.69-4.22-8.38-9.32-11.08-15.3-2.7-5.98-4.04-12.68-4.04-20.11,0-6.25.86-12.43,2.58-18.52,1.72-6.1,4.16-11.88,7.33-17.35,3.17-5.47,6.98-10.55,11.43-15.24,4.45-4.69,9.4-8.73,14.83-12.14,5.43-3.4,11.31-6.05,17.64-7.97,6.33-1.91,12.93-2.87,19.81-2.87,9.14,0,17.33,1.84,24.56,5.51,7.23,3.68,13.11,8.68,17.64,15.01,4.53,6.33,7.48,13.7,8.85,22.1,1.37,8.4.8,17.33-1.7,26.79h-104.45c-.31,5.55.31,10.65,1.88,15.3,1.56,4.65,3.87,8.64,6.92,11.96,3.05,3.32,6.76,5.9,11.14,7.74,4.38,1.84,9.26,2.76,14.65,2.76,6.02,0,11.39-.86,16.12-2.58,4.73-1.72,8.77-3.59,12.13-5.63,3.91-2.42,7.35-5.16,10.32-8.21h21.22c-3.83,5.94-8.64,11.25-14.42,15.94-2.5,2.04-5.32,3.99-8.44,5.86-3.13,1.88-6.6,3.57-10.43,5.1-3.83,1.52-8.03,2.73-12.6,3.63-4.57.9-9.52,1.35-14.83,1.35ZM753.87,1177.8c-5.39,0-10.71.94-15.94,2.81-5.24,1.88-10.12,4.51-14.65,7.92-4.53,3.4-8.56,7.46-12.07,12.19-3.52,4.73-6.29,9.9-8.32,15.53h85.46c.7-4.92.31-9.71-1.17-14.36-1.49-4.65-3.81-8.75-6.98-12.31-3.17-3.55-7-6.41-11.49-8.55-4.49-2.15-9.44-3.23-14.83-3.23Z"/>
      <path class="cls-1" d="M827.96,1282.61h-23.09l62.02-62.37-32.24-55.57h20.28l24.74,42.79,42.79-42.79h23.09l-55.69,55.57,35.52,62.37h-20.28l-28.14-49.35-49,49.35Z"/>
      <path class="cls-4" d="M952.35,1344.98h-18.05l38.33-180.3h18.05l-5.16,24.74c3.28-5,7.27-9.5,11.96-13.48,1.95-1.72,4.18-3.38,6.68-4.98,2.5-1.6,5.26-3.05,8.26-4.34,3.01-1.28,6.26-2.32,9.73-3.1,3.47-.78,7.21-1.17,11.19-1.17,7.34,0,14.13,1.19,20.34,3.57,6.22,2.39,11.59,5.71,16.12,9.97,4.53,4.26,8.07,9.36,10.61,15.3,2.54,5.94,3.81,12.47,3.81,19.58,0,6.72-.9,13.25-2.7,19.58-1.8,6.33-4.3,12.23-7.5,17.7-3.21,5.47-7.02,10.48-11.43,15.01-4.41,4.53-9.26,8.42-14.54,11.66-5.27,3.24-10.88,5.77-16.82,7.56-5.94,1.8-12,2.7-18.17,2.7-4.22,0-8.05-.43-11.49-1.29-3.44-.86-6.51-1.99-9.2-3.4-2.7-1.41-5.1-3.03-7.21-4.87-2.11-1.83-3.91-3.69-5.39-5.57-3.6-4.45-6.29-9.53-8.09-15.24l-19.34,90.39ZM1031.24,1177.8c-7.27,0-14.19,1.58-20.75,4.75-6.56,3.17-12.31,7.39-17.23,12.66-4.92,5.28-8.85,11.32-11.78,18.11-2.93,6.8-4.39,13.83-4.39,21.1,0,5.16.84,9.89,2.52,14.19,1.68,4.3,4.05,7.99,7.09,11.08,3.05,3.09,6.68,5.5,10.9,7.21,4.22,1.72,8.91,2.58,14.07,2.58,7.27,0,14.17-1.58,20.69-4.75,6.53-3.17,12.29-7.37,17.29-12.6,5-5.23,8.97-11.25,11.9-18.05,2.93-6.8,4.39-13.83,4.39-21.1,0-5.23-.84-10-2.52-14.3-1.68-4.3-4.05-7.99-7.09-11.08-3.05-3.09-6.7-5.49-10.96-7.21-4.26-1.72-8.97-2.58-14.13-2.58Z"/>
      <path class="cls-4" d="M1223.15,1164.67h18.05l-24.97,117.94h-18.05l5.16-24.74c-3.28,5.08-7.27,9.61-11.96,13.6-2.04,1.72-4.28,3.38-6.74,4.98-2.47,1.6-5.2,3.03-8.21,4.28-3.01,1.25-6.26,2.26-9.73,3.05-3.47.78-7.21,1.17-11.19,1.17-7.35,0-14.13-1.19-20.34-3.57-6.22-2.39-11.59-5.71-16.12-9.97-4.53-4.26-8.07-9.36-10.61-15.3-2.54-5.94-3.81-12.46-3.81-19.58,0-6.72.9-13.25,2.7-19.58,1.8-6.33,4.3-12.23,7.5-17.7,3.2-5.47,7.02-10.47,11.43-15.01,4.41-4.53,9.26-8.42,14.54-11.66,5.27-3.24,10.88-5.76,16.82-7.56,5.94-1.8,12-2.7,18.17-2.7,4.22,0,8.03.43,11.43,1.29,3.4.86,6.46,2.01,9.2,3.46,2.73,1.45,5.14,3.09,7.21,4.92,2.07,1.84,3.88,3.7,5.45,5.57,3.59,4.45,6.29,9.5,8.09,15.12l5.98-28.02ZM1157.62,1269.48c7.27,0,14.19-1.58,20.75-4.75,6.56-3.17,12.31-7.39,17.23-12.66,4.92-5.28,8.85-11.32,11.78-18.11,2.93-6.8,4.39-13.83,4.39-21.1,0-5.16-.84-9.88-2.52-14.19-1.68-4.3-4.05-7.99-7.09-11.08-3.05-3.09-6.68-5.49-10.9-7.21-4.22-1.72-8.91-2.58-14.07-2.58-7.27,0-14.17,1.58-20.69,4.75-6.53,3.17-12.3,7.37-17.29,12.6-5,5.24-8.97,11.25-11.9,18.05-2.93,6.8-4.39,13.83-4.39,21.1,0,5.24.84,10.01,2.52,14.3,1.68,4.3,4.05,7.99,7.09,11.08,3.05,3.09,6.7,5.5,10.96,7.21,4.26,1.72,8.97,2.58,14.13,2.58Z"/>
      <path class="cls-4" d="M1294.19,1269.48c3.67,0,7.64-.35,11.9-1.06,4.26-.7,8.21-1.95,11.85-3.75,3.63-1.8,6.64-4.22,9.02-7.27,2.39-3.05,3.58-6.95,3.58-11.72,0-2.19-.47-4.1-1.41-5.74-.94-1.64-2.48-3.07-4.63-4.28-2.15-1.21-5.03-2.27-8.62-3.17-3.6-.9-8.01-1.7-13.25-2.4-13.05-1.64-23.09-4.87-30.13-9.67-7.03-4.81-10.55-11.59-10.55-20.34,0-6.64,1.52-12.35,4.57-17.12,3.05-4.76,7.05-8.68,12.02-11.72,4.96-3.05,10.59-5.29,16.88-6.74,6.29-1.44,12.72-2.17,19.28-2.17,5.08,0,9.57.43,13.48,1.29,3.91.86,7.33,1.97,10.26,3.34,2.94,1.36,5.41,2.93,7.45,4.69,2.03,1.75,3.71,3.57,5.04,5.45,3.12,4.3,4.96,9.22,5.51,14.77h-18.76c-.47-2.65-1.64-5-3.52-7.03-1.57-1.8-3.95-3.42-7.15-4.87-3.21-1.44-7.62-2.17-13.25-2.17-3.21,0-6.72.29-10.55.88-3.83.58-7.39,1.68-10.67,3.28-3.28,1.6-6.04,3.75-8.27,6.44-2.22,2.7-3.34,6.16-3.34,10.38s1.97,7.33,5.92,9.79c3.95,2.47,10.34,4.21,19.17,5.22,6.64.78,12.62,1.94,17.94,3.46,5.31,1.53,9.85,3.54,13.6,6.04,3.75,2.5,6.64,5.55,8.68,9.14,2.03,3.6,3.05,7.85,3.05,12.78,0,7.35-1.6,13.54-4.81,18.58-3.21,5.04-7.45,9.13-12.72,12.25-5.28,3.13-11.25,5.39-17.94,6.8-6.68,1.41-13.54,2.11-20.57,2.11-5.79,0-10.87-.43-15.24-1.29-4.38-.86-8.17-1.97-11.37-3.34-3.21-1.36-5.9-2.93-8.09-4.69-2.19-1.75-3.99-3.57-5.39-5.45-3.28-4.3-5.08-9.22-5.39-14.77h18.76c.7,2.66,2.15,5,4.34,7.03.94.86,2.09,1.72,3.46,2.58,1.36.86,2.99,1.62,4.86,2.29,1.88.66,4.05,1.19,6.5,1.58,2.47.39,5.29.59,8.5.59Z"/>
      <path class="cls-4" d="M1412.48,1269.48c3.67,0,7.64-.35,11.9-1.06,4.26-.7,8.21-1.95,11.85-3.75,3.63-1.8,6.64-4.22,9.02-7.27,2.39-3.05,3.58-6.95,3.58-11.72,0-2.19-.47-4.1-1.41-5.74-.94-1.64-2.48-3.07-4.63-4.28-2.15-1.21-5.03-2.27-8.62-3.17-3.6-.9-8.01-1.7-13.25-2.4-13.05-1.64-23.09-4.87-30.13-9.67-7.03-4.81-10.55-11.59-10.55-20.34,0-6.64,1.52-12.35,4.57-17.12,3.05-4.76,7.05-8.68,12.02-11.72,4.96-3.05,10.59-5.29,16.88-6.74,6.29-1.44,12.72-2.17,19.28-2.17,5.08,0,9.57.43,13.48,1.29,3.91.86,7.33,1.97,10.26,3.34,2.94,1.36,5.41,2.93,7.45,4.69,2.03,1.75,3.71,3.57,5.04,5.45,3.12,4.3,4.96,9.22,5.51,14.77h-18.76c-.47-2.65-1.64-5-3.52-7.03-1.57-1.8-3.95-3.42-7.15-4.87-3.21-1.44-7.62-2.17-13.25-2.17-3.21,0-6.72.29-10.55.88-3.83.58-7.39,1.68-10.67,3.28-3.28,1.6-6.04,3.75-8.27,6.44-2.22,2.7-3.34,6.16-3.34,10.38s1.97,7.33,5.92,9.79c3.95,2.47,10.34,4.21,19.17,5.22,6.64.78,12.62,1.94,17.94,3.46,5.31,1.53,9.85,3.54,13.6,6.04,3.75,2.5,6.64,5.55,8.68,9.14,2.03,3.6,3.05,7.85,3.05,12.78,0,7.35-1.6,13.54-4.81,18.58-3.21,5.04-7.45,9.13-12.72,12.25-5.28,3.13-11.25,5.39-17.94,6.8-6.68,1.41-13.54,2.11-20.57,2.11-5.79,0-10.87-.43-15.24-1.29-4.38-.86-8.17-1.97-11.37-3.34-3.21-1.36-5.9-2.93-8.09-4.69-2.19-1.75-3.99-3.57-5.39-5.45-3.28-4.3-5.08-9.22-5.39-14.77h18.76c.7,2.66,2.15,5,4.34,7.03.94.86,2.09,1.72,3.46,2.58,1.36.86,2.99,1.62,4.86,2.29,1.88.66,4.05,1.19,6.5,1.58,2.47.39,5.29.59,8.5.59Z"/>
      <polygon class="cls-1" points="880.78 1209.23 819.41 1102.65 798.53 1102.65 868.01 1222.01 880.78 1209.23"/>
      <polygon class="cls-1" points="866.88 1220.24 743.1 1344.98 765.83 1344.98 876.97 1233.26 866.88 1220.24"/>
    </g>
    <text class="cls-2" transform="translate(1150.07 1366.12)"><tspan x="0" y="0">by OneFit</tspan></text>
  </g>
</svg>