<svg width="933" height="243" viewBox="0 0 933 243" fill="none" xmlns="http://www.w3.org/2000/svg">
<path d="M209.986 37.8862V204.884C230.578 183.1 243.229 153.728 243.229 121.385C243.229 89.0419 230.578 59.6698 209.986 37.8862Z" fill="#8C8B8B"/>
<path d="M0 121.385C0 186.096 50.5523 238.986 114.318 242.759V138.096C107.875 135.278 103.37 128.861 103.37 121.38C103.37 113.899 107.875 107.481 114.318 104.664V0C50.5523 3.77378 0 56.6629 0 121.375V121.385Z" fill="white"/>
<path d="M195.399 24.8519H169.453V217.923H195.399V24.8519Z" fill="#AAAAAA"/>
<path d="M128.911 104.669C135.349 107.486 139.854 113.904 139.854 121.38C139.854 128.856 135.349 135.278 128.911 138.096V238.239H154.852V4.53064H128.911V104.674V104.669Z" fill="#CCCBCB"/>
<path d="M359.651 82.204L357.477 92.4595H332.683L318.304 160.383H306.339L320.718 92.4595H303.229L305.404 82.204H322.892L323.979 77.3049C325.225 71.3518 326.763 66.1015 328.606 61.567C330.443 57.0326 332.683 53.2539 335.328 50.2177C337.974 47.1881 341.056 44.8944 344.576 43.3432C348.096 41.7919 352.193 41.0096 356.854 41.0096C358.663 41.0096 360.361 41.0892 361.945 41.2417C363.523 41.3941 364.882 41.5797 366.022 41.7852C367.368 41.9907 368.588 42.2493 369.675 42.5609L367.573 52.3523C366.539 52.1999 365.472 52.0142 364.385 51.8087C363.45 51.8087 362.402 51.59 361.236 51.4574C360.069 51.3314 358.915 51.2651 357.775 51.2651C354.825 51.2651 352.22 51.7093 349.966 52.5843C347.712 53.466 345.717 54.9311 343.98 56.9796C342.243 59.028 340.731 61.7062 339.432 65.0209C338.133 68.3355 336.972 72.4324 335.932 77.2983L334.845 82.1973H359.638L359.651 82.204Z" fill="white"/>
<path d="M367.189 160.39L392.215 42.5742H404.181L379.155 160.39H367.189Z" fill="white"/>
<path d="M441.178 161.941C436.305 161.941 431.771 161.192 427.574 159.687C423.378 158.189 419.725 156.034 416.616 153.237C413.507 150.439 411.061 147.058 409.271 143.094C407.481 139.13 406.593 134.688 406.593 129.762C406.593 125.619 407.163 121.522 408.303 117.485C409.443 113.441 411.061 109.609 413.162 105.983C415.264 102.357 417.79 98.9893 420.74 95.8801C423.69 92.771 426.971 90.0928 430.571 87.8322C434.171 85.5782 438.069 83.8214 442.265 82.5486C446.461 81.2824 450.837 80.646 455.398 80.646C461.457 80.646 466.886 81.8658 471.679 84.2987C476.472 86.7383 480.37 90.053 483.373 94.2493C486.376 98.4456 488.332 103.331 489.24 108.9C490.148 114.469 489.77 120.389 488.113 126.66H418.87C418.665 130.339 419.076 133.72 420.117 136.803C421.151 139.885 422.682 142.53 424.704 144.731C426.726 146.932 429.185 148.643 432.089 149.862C434.993 151.082 438.228 151.692 441.801 151.692C445.792 151.692 449.352 151.122 452.487 149.982C455.623 148.841 458.301 147.602 460.529 146.249C463.121 144.645 465.401 142.829 467.37 140.807H481.437C478.898 144.744 475.71 148.265 471.878 151.374C470.221 152.726 468.351 154.019 466.283 155.259C464.208 156.505 461.907 157.625 459.368 158.639C456.829 159.647 454.045 160.449 451.016 161.046C447.986 161.643 444.704 161.941 441.184 161.941H441.178ZM454.774 90.9082C451.201 90.9082 447.674 91.5313 444.207 92.771C440.734 94.0173 437.498 95.7608 434.495 98.0214C431.492 100.275 428.821 102.967 426.494 106.102C424.16 109.238 422.324 112.665 420.978 116.398H477.632C478.096 113.136 477.838 109.961 476.856 106.878C475.869 103.795 474.331 101.077 472.229 98.7174C470.128 96.364 467.589 94.4681 464.612 93.0494C461.636 91.6241 458.354 90.9082 454.781 90.9082H454.774Z" fill="white"/>
<path d="M503.89 160.39H488.583L529.698 119.043L508.325 82.204H521.769L538.17 110.571L566.537 82.204H581.844L544.925 119.043L568.472 160.39H555.028L536.373 127.674L503.89 160.39Z" fill="#8C8B8B"/>
<path d="M586.353 201.736H574.387L599.797 82.2106H611.763L608.342 98.6114C610.516 95.2968 613.161 92.3135 616.27 89.6751C617.563 88.5348 619.042 87.4344 620.699 86.3737C622.356 85.313 624.186 84.3518 626.175 83.4966C628.17 82.6481 630.325 81.9586 632.625 81.4415C634.925 80.9245 637.405 80.6659 640.043 80.6659C644.909 80.6659 649.41 81.4548 653.527 83.0326C657.65 84.617 661.21 86.8179 664.213 89.642C667.217 92.466 669.563 95.8469 671.247 99.7847C672.931 103.722 673.773 108.051 673.773 112.765C673.773 117.22 673.176 121.549 671.983 125.745C670.79 129.941 669.132 133.853 667.011 137.479C664.883 141.105 662.357 144.426 659.434 147.429C656.51 150.432 653.295 153.011 649.795 155.159C646.301 157.307 642.582 158.984 638.644 160.171C634.707 161.364 630.689 161.961 626.599 161.961C623.801 161.961 621.262 161.676 618.982 161.106C616.701 160.535 614.666 159.786 612.883 158.852C611.093 157.917 609.502 156.843 608.103 155.623C606.704 154.41 605.511 153.177 604.53 151.931C602.144 148.981 600.36 145.613 599.167 141.828L586.346 201.75L586.353 201.736ZM638.651 90.9082C633.831 90.9082 629.244 91.9556 624.895 94.0571C620.546 96.1586 616.735 98.9561 613.473 102.45C610.211 105.95 607.606 109.954 605.664 114.455C603.721 118.963 602.753 123.624 602.753 128.443C602.753 131.864 603.31 134.999 604.424 137.85C605.538 140.701 607.109 143.147 609.124 145.195C611.146 147.244 613.552 148.841 616.35 149.975C619.148 151.115 622.257 151.685 625.677 151.685C630.497 151.685 635.071 150.638 639.393 148.536C643.722 146.435 647.541 143.651 650.855 140.184C654.17 136.716 656.802 132.726 658.744 128.218C660.687 123.71 661.654 119.049 661.654 114.23C661.654 110.763 661.098 107.601 659.984 104.75C658.87 101.9 657.299 99.4533 655.284 97.4048C653.262 95.3564 650.842 93.7654 648.018 92.6251C645.194 91.4849 642.072 90.9148 638.651 90.9148V90.9082Z" fill="white"/>
<path d="M765.874 82.2039H777.84L761.286 160.39H749.321L752.741 143.989C750.567 147.356 747.922 150.36 744.813 153.005C743.46 154.145 741.975 155.245 740.345 156.306C738.707 157.367 736.897 158.315 734.902 159.143C732.907 159.972 730.752 160.642 728.452 161.165C726.151 161.682 723.672 161.941 721.033 161.941C716.161 161.941 711.666 161.152 707.55 159.574C703.426 157.99 699.866 155.789 696.863 152.965C693.86 150.141 691.513 146.76 689.829 142.822C688.146 138.884 687.304 134.562 687.304 129.842C687.304 125.387 687.9 121.058 689.094 116.862C690.287 112.665 691.944 108.754 694.066 105.128C696.187 101.502 698.719 98.1871 701.643 95.1774C704.566 92.1743 707.782 89.5955 711.282 87.4476C714.775 85.2998 718.494 83.6292 722.432 82.4359C726.37 81.2427 730.387 80.646 734.478 80.646C737.275 80.646 739.801 80.9311 742.055 81.5012C744.309 82.0713 746.337 82.8337 748.154 83.7949C749.964 84.7561 751.561 85.8434 752.934 87.0565C754.306 88.2763 755.506 89.5094 756.546 90.7491C758.926 93.6991 760.716 97.0469 761.91 100.773L765.874 82.1973V82.2039ZM722.432 151.685C727.252 151.685 731.839 150.638 736.188 148.536C740.537 146.435 744.349 143.637 747.61 140.144C750.872 136.644 753.477 132.639 755.42 128.138C757.362 123.63 758.33 118.97 758.33 114.15C758.33 110.73 757.773 107.601 756.659 104.743C755.545 101.893 753.974 99.4466 751.959 97.3982C749.937 95.3497 747.531 93.7587 744.733 92.6185C741.936 91.4783 738.826 90.9082 735.406 90.9082C730.586 90.9082 726.012 91.9556 721.69 94.0571C717.361 96.1586 713.536 98.9429 710.228 102.41C706.913 105.884 704.281 109.868 702.339 114.376C700.397 118.884 699.429 123.544 699.429 128.364C699.429 131.837 699.985 134.999 701.099 137.843C702.213 140.694 703.784 143.14 705.799 145.189C707.821 147.237 710.241 148.835 713.065 149.968C715.889 151.109 719.012 151.679 722.432 151.679V151.685Z" fill="white"/>
<path d="M812.968 151.685C815.401 151.685 818.033 151.453 820.857 150.983C823.681 150.519 826.3 149.69 828.713 148.497C831.119 147.303 833.115 145.699 834.693 143.677C836.277 141.655 837.066 139.07 837.066 135.908C837.066 134.456 836.754 133.19 836.131 132.102C835.508 131.015 834.487 130.067 833.062 129.265C831.636 128.463 829.727 127.76 827.347 127.164C824.961 126.567 822.037 126.037 818.564 125.573C809.912 124.485 803.257 122.344 798.59 119.162C793.929 115.973 791.596 111.479 791.596 105.678C791.596 101.276 792.603 97.491 794.625 94.3288C796.647 91.1733 799.299 88.5746 802.594 86.5593C805.882 84.5374 809.614 83.0524 813.784 82.0912C817.954 81.1366 822.216 80.6526 826.565 80.6526C829.933 80.6526 832.909 80.9377 835.501 81.5078C838.093 82.0779 840.361 82.8137 842.303 83.7219C844.252 84.6235 845.889 85.6644 847.242 86.8311C848.588 87.9912 849.701 89.1977 850.583 90.444C852.651 93.2946 853.871 96.5563 854.236 100.235H841.799C841.488 98.4787 840.712 96.9208 839.466 95.5751C838.425 94.3818 836.847 93.3079 834.726 92.3466C832.598 91.392 829.674 90.9081 825.942 90.9081C823.814 90.9081 821.487 91.1004 818.948 91.4915C816.409 91.876 814.049 92.6052 811.875 93.6659C809.7 94.7265 807.871 96.1519 806.392 97.9352C804.92 99.7251 804.178 102.019 804.178 104.816C804.178 107.614 805.484 109.676 808.102 111.306C810.721 112.944 814.957 114.097 820.811 114.767C825.213 115.284 829.177 116.053 832.704 117.061C836.224 118.075 839.234 119.407 841.72 121.065C844.206 122.722 846.121 124.744 847.474 127.124C848.82 129.51 849.496 132.328 849.496 135.596C849.496 140.469 848.435 144.572 846.307 147.913C844.179 151.254 841.368 153.966 837.875 156.034C834.374 158.109 830.417 159.607 825.982 160.542C821.553 161.477 817.006 161.941 812.345 161.941C808.507 161.941 805.139 161.656 802.242 161.086C799.339 160.516 796.826 159.78 794.705 158.871C792.577 157.97 790.794 156.929 789.342 155.762C787.89 154.602 786.697 153.396 785.769 152.149C783.594 149.299 782.401 146.037 782.195 142.358H794.632C795.096 144.121 796.057 145.673 797.509 147.018C798.132 147.588 798.894 148.159 799.803 148.729C800.704 149.299 801.785 149.803 803.024 150.247C804.271 150.684 805.709 151.036 807.333 151.294C808.971 151.553 810.84 151.685 812.968 151.685Z" fill="white"/>
<path d="M891.385 151.685C893.818 151.685 896.45 151.453 899.274 150.983C902.098 150.519 904.717 149.69 907.13 148.497C909.536 147.303 911.532 145.699 913.11 143.677C914.694 141.655 915.483 139.07 915.483 135.908C915.483 134.456 915.171 133.19 914.548 132.102C913.925 131.015 912.904 130.067 911.479 129.265C910.053 128.463 908.144 127.76 905.764 127.164C903.378 126.567 900.454 126.037 896.981 125.573C888.329 124.485 881.674 122.344 877.006 119.162C872.346 115.973 870.013 111.479 870.013 105.678C870.013 101.276 871.02 97.491 873.042 94.3288C875.064 91.1733 877.716 88.5746 881.011 86.5593C884.299 84.5374 888.031 83.0524 892.201 82.0912C896.371 81.1366 900.633 80.6526 904.982 80.6526C908.35 80.6526 911.326 80.9377 913.918 81.5078C916.51 82.0779 918.778 82.8137 920.72 83.7219C922.669 84.6235 924.306 85.6644 925.659 86.8311C927.005 87.9912 928.118 89.1977 929 90.444C931.068 93.2946 932.288 96.5563 932.653 100.235H920.216C919.905 98.4787 919.129 96.9208 917.883 95.5751C916.842 94.3818 915.264 93.3079 913.143 92.3466C911.015 91.392 908.091 90.9081 904.359 90.9081C902.231 90.9081 899.904 91.1004 897.365 91.4915C894.826 91.876 892.466 92.6052 890.292 93.6659C888.117 94.7265 886.287 96.1519 884.809 97.9352C883.337 99.7251 882.595 102.019 882.595 104.816C882.595 107.614 883.901 109.676 886.519 111.306C889.138 112.944 893.374 114.097 899.228 114.767C903.63 115.284 907.594 116.053 911.121 117.061C914.641 118.075 917.651 119.407 920.137 121.065C922.623 122.722 924.538 124.744 925.891 127.124C927.237 129.51 927.913 132.328 927.913 135.596C927.913 140.469 926.852 144.572 924.724 147.913C922.596 151.254 919.785 153.966 916.292 156.034C912.791 158.109 908.834 159.607 904.399 160.542C899.97 161.477 895.423 161.941 890.762 161.941C886.924 161.941 883.556 161.656 880.659 161.086C877.756 160.516 875.243 159.78 873.122 158.871C870.994 157.97 869.21 156.929 867.759 155.762C866.307 154.602 865.114 153.396 864.185 152.149C862.011 149.299 860.818 146.037 860.612 142.358H873.049C873.513 144.121 874.474 145.673 875.926 147.018C876.549 147.588 877.311 148.159 878.22 148.729C879.121 149.299 880.202 149.803 881.441 150.247C882.688 150.684 884.126 151.036 885.75 151.294C887.388 151.553 889.257 151.685 891.385 151.685Z" fill="white"/>
<path d="M538.907 111.744L498.223 41.0892H484.381L530.441 120.216L538.907 111.744Z" fill="#8C8B8B"/>
<path d="M529.693 119.043L447.636 201.736H462.704L536.382 127.674L529.693 119.043Z" fill="#8C8B8B"/>
</svg>
