<svg width="920" height="243" viewBox="0 0 920 243" fill="none" xmlns="http://www.w3.org/2000/svg">
<path d="M210.225 37.8805V204.885C230.67 183.098 243.23 153.726 243.23 121.385C243.23 89.0443 230.67 59.6723 210.225 37.8856V37.8805Z" fill="#666667"/>
<path d="M0 121.38C0 186.097 50.194 238.985 113.5 242.76V138.096C107.103 135.28 102.631 128.858 102.631 121.38C102.631 113.902 107.103 107.48 113.5 104.664V0C50.1889 3.77479 0 56.6627 0 121.38Z" fill="black"/>
<path d="M195.155 24.8474H169.397V217.923H195.155V24.8474Z" fill="#49494A"/>
<path d="M128.57 104.669C134.967 107.485 139.439 113.902 139.439 121.385C139.439 128.868 134.967 135.28 128.57 138.101V238.245H154.328V4.52966H128.57V104.674V104.669Z" fill="#282827"/>
<path d="M346.652 82.2069L344.477 92.4648H319.684L305.307 160.394H293.338L307.714 92.4648H290.229L292.405 82.2069H309.89L310.981 77.3128C312.225 71.3538 313.765 66.1091 315.604 61.5721C317.442 57.0417 319.684 53.2586 322.329 50.2229C324.975 47.1938 328.056 44.8988 331.575 43.3446C335.099 41.7904 339.193 41.01 343.855 41.01C345.667 41.01 347.367 41.0894 348.947 41.2415C350.528 41.4002 351.883 41.5787 353.027 41.7838C354.376 41.9888 355.593 42.2534 356.678 42.5642L354.581 52.3591C353.543 52.2004 352.485 52.0218 351.394 51.8168C350.461 51.711 349.41 51.5985 348.246 51.4663C347.082 51.3406 345.925 51.2745 344.787 51.2745C341.831 51.2745 339.232 51.7176 336.977 52.5973C334.722 53.4835 332.725 54.9385 330.993 56.9887C329.253 59.0324 327.739 61.7176 326.449 65.031C325.153 68.3511 323.989 72.4451 322.951 77.3128L321.86 82.2069H346.652Z" fill="black"/>
<path d="M354.192 160.401L379.216 42.5709H391.186L366.162 160.401H354.192Z" fill="black"/>
<path d="M428.179 161.955C423.305 161.955 418.775 161.201 414.576 159.7C410.377 158.199 406.726 156.049 403.618 153.252C400.51 150.454 398.063 147.068 396.271 143.113C394.486 139.144 393.593 134.707 393.593 129.779C393.593 125.633 394.161 121.539 395.306 117.498C396.443 113.457 398.063 109.621 400.166 105.996C402.263 102.372 404.789 98.9992 407.745 95.8907C410.701 92.7822 413.974 90.1037 417.578 87.8418C421.176 85.5931 425.078 83.8272 429.277 82.5574C433.476 81.2876 437.847 80.6526 442.411 80.6526C448.475 80.6526 453.897 81.8696 458.692 84.3034C463.486 86.7439 467.382 90.0574 470.391 94.2505C473.393 98.4502 475.35 103.331 476.256 108.906C477.162 114.475 476.785 120.395 475.132 126.664H405.886C405.681 130.348 406.091 133.728 407.13 136.803C408.168 139.885 409.696 142.531 411.713 144.733C413.736 146.935 416.196 148.648 419.093 149.865C421.996 151.082 425.23 151.691 428.807 151.691C432.795 151.691 436.36 151.122 439.494 149.978C442.629 148.84 445.307 147.597 447.536 146.248C450.128 144.64 452.403 142.828 454.374 140.805H468.44C465.9 144.746 462.713 148.265 458.877 151.373C457.217 152.722 455.352 154.019 453.282 155.262C451.206 156.506 448.905 157.63 446.365 158.642C443.826 159.647 441.042 160.454 438.013 161.049C434.984 161.644 431.704 161.942 428.179 161.942V161.955ZM441.776 90.9105C438.198 90.9105 434.68 91.5323 431.208 92.7757C427.736 94.019 424.496 95.765 421.493 98.0269C418.484 100.276 415.819 102.974 413.492 106.109C411.157 109.244 409.319 112.676 407.976 116.406H464.631C465.1 113.139 464.836 109.965 463.85 106.889C462.865 103.807 461.324 101.083 459.228 98.728C457.131 96.3735 454.592 94.482 451.609 93.06C448.627 91.6314 445.353 90.9238 441.776 90.9238V90.9105Z" fill="black"/>
<path d="M490.897 160.401H475.588L516.701 119.052L495.328 82.2135H508.772L525.173 110.586L553.543 82.2135H568.852L531.938 119.052L555.487 160.401H542.043L523.387 127.676L490.904 160.401H490.897Z" fill="#666667"/>
<path d="M573.356 201.75H561.387L586.801 82.2069H598.77L595.352 98.609C597.527 95.2955 600.172 92.3127 603.281 89.6738C604.577 88.5363 606.051 87.4318 607.711 86.3736C609.371 85.3088 611.196 84.3498 613.187 83.4966C615.184 82.6434 617.333 81.9556 619.641 81.4398C621.943 80.9239 624.423 80.6593 627.061 80.6593C631.928 80.6593 636.425 81.4463 640.545 83.027C644.665 84.6077 648.23 86.8101 651.232 89.6342C654.234 92.4582 656.582 95.8378 658.262 99.773C659.948 103.715 660.788 108.04 660.788 112.756C660.788 117.213 660.193 121.539 659.002 125.738C657.805 129.938 656.152 133.847 654.029 137.478C651.9 141.109 649.38 144.422 646.451 147.425C643.528 150.434 640.314 153.007 636.816 155.156C633.324 157.306 629.601 158.979 625.666 160.169C621.724 161.36 617.71 161.955 613.617 161.955C610.82 161.955 608.28 161.671 605.999 161.102C603.717 160.533 601.687 159.779 599.901 158.847C598.109 157.914 596.522 156.836 595.12 155.619C593.718 154.402 592.528 153.172 591.542 151.929C589.155 148.972 587.37 145.606 586.179 141.823L573.356 201.75ZM625.659 90.9106C620.838 90.9106 616.255 91.9622 611.904 94.0587C607.553 96.1619 603.744 98.9594 600.477 102.451C597.21 105.95 594.611 109.951 592.667 114.462C590.729 118.973 589.757 123.635 589.757 128.45C589.757 131.869 590.312 135.004 591.423 137.855C592.541 140.705 594.108 143.152 596.125 145.196C598.149 147.246 600.556 148.84 603.353 149.978C606.151 151.122 609.259 151.691 612.678 151.691C617.499 151.691 622.068 150.639 626.393 148.543C630.718 146.439 634.541 143.655 637.86 140.183C641.174 136.711 643.806 132.723 645.75 128.212C647.687 123.701 648.66 119.039 648.66 114.224C648.66 110.752 648.104 107.59 646.993 104.74C645.875 101.889 644.308 99.4423 642.291 97.3987C640.268 95.3484 637.847 93.7611 635.023 92.6169C632.2 91.4793 629.078 90.904 625.659 90.904V90.9106Z" fill="black"/>
<path d="M752.881 82.2069H764.851L748.298 160.401H736.329L739.748 143.999C737.572 147.372 734.927 150.375 731.819 153.013C730.47 154.158 728.982 155.256 727.348 156.32C725.715 157.379 723.903 158.331 721.906 159.158C719.908 159.991 717.759 160.659 715.451 161.181C713.15 161.697 710.67 161.962 708.031 161.962C703.158 161.962 698.667 161.175 694.547 159.594C690.427 158.013 686.863 155.811 683.861 152.987C680.852 150.163 678.511 146.783 676.831 142.848C675.145 138.913 674.305 134.588 674.305 129.865C674.305 125.408 674.9 121.082 676.09 116.883C677.281 112.683 678.94 108.774 681.063 105.143C683.186 101.519 685.712 98.1989 688.642 95.1962C691.565 92.1936 694.779 89.6143 698.277 87.4648C701.769 85.3154 705.492 83.642 709.427 82.4516C713.362 81.2611 717.376 80.6659 721.476 80.6659C724.273 80.6659 726.799 80.9503 729.054 81.5191C731.303 82.0879 733.34 82.855 735.152 83.8074C736.964 84.7664 738.557 85.8576 739.933 87.0746C741.302 88.2915 742.505 89.5217 743.544 90.7651C745.924 93.7214 747.71 97.0614 748.907 100.791L752.868 82.2135L752.881 82.2069ZM709.44 151.691C714.261 151.691 718.844 150.639 723.195 148.543C727.547 146.439 731.356 143.642 734.623 140.15C737.889 136.651 740.488 132.65 742.433 128.139C744.37 123.629 745.342 118.966 745.342 114.151C745.342 110.732 744.787 107.597 743.676 104.746C742.558 101.896 740.991 99.4489 738.974 97.4053C736.95 95.355 734.543 93.7677 731.746 92.6235C728.949 91.4859 725.84 90.9105 722.421 90.9105C717.601 90.9105 713.031 91.9621 708.706 94.0587C704.381 96.1619 700.552 98.9462 697.239 102.418C693.919 105.891 691.294 109.879 689.349 114.389C687.412 118.9 686.44 123.563 686.44 128.377C686.44 131.85 686.995 135.011 688.106 137.861C689.224 140.712 690.791 143.159 692.808 145.203C694.832 147.253 697.252 148.847 700.076 149.984C702.9 151.129 706.021 151.697 709.44 151.697V151.691Z" fill="black"/>
<path d="M799.98 151.691C802.413 151.691 805.045 151.459 807.869 150.99C810.693 150.52 813.312 149.693 815.719 148.503C818.126 147.312 820.123 145.705 821.697 143.682C823.277 141.658 824.071 139.072 824.071 135.91C824.071 134.462 823.76 133.192 823.139 132.101C822.517 131.01 821.492 130.07 820.07 129.264C818.642 128.457 816.737 127.756 814.356 127.16C811.969 126.565 809.046 126.036 805.574 125.567C796.918 124.475 790.265 122.339 785.603 119.158C780.941 115.97 778.606 111.473 778.606 105.672C778.606 101.268 779.618 97.4846 781.635 94.3233C783.658 91.1619 786.31 88.5693 789.604 86.5593C792.89 84.5284 796.62 83.0403 800.793 82.0813C804.959 81.1223 809.225 80.6461 813.576 80.6461C816.942 80.6461 819.918 80.9305 822.51 81.4993C825.103 82.068 827.371 82.8088 829.309 83.7148C831.253 84.6209 832.893 85.6527 834.242 86.8233C835.591 87.9874 836.702 89.191 837.582 90.4344C839.651 93.2849 840.868 96.5521 841.232 100.229H828.799C828.489 98.47 827.708 96.9159 826.465 95.5667C825.427 94.3762 823.846 93.2982 821.723 92.3392C819.594 91.3802 816.671 90.904 812.941 90.904C810.812 90.904 808.484 91.0958 805.945 91.486C803.405 91.8696 801.051 92.5971 798.875 93.6619C796.699 94.7201 794.874 96.1486 793.393 97.9343C791.918 99.7267 791.178 102.015 791.178 104.813C791.178 107.61 792.487 109.674 795.099 111.301C797.718 112.934 801.95 114.092 807.809 114.76C812.214 115.282 816.175 116.043 819.7 117.048C823.225 118.06 826.227 119.396 828.713 121.049C831.2 122.709 833.118 124.733 834.467 127.114C835.816 129.502 836.49 132.319 836.49 135.586C836.49 140.461 835.426 144.561 833.303 147.908C831.174 151.248 828.37 153.959 824.871 156.029C821.373 158.106 817.412 159.607 812.974 160.54C808.55 161.472 804 161.942 799.338 161.942C795.502 161.942 792.136 161.658 789.233 161.089C786.33 160.52 783.817 159.779 781.694 158.873C779.565 157.967 777.779 156.935 776.331 155.765C774.876 154.601 773.686 153.397 772.753 152.154C770.578 149.303 769.381 146.043 769.176 142.359H781.608C782.078 144.125 783.03 145.679 784.485 147.021C785.107 147.59 785.874 148.166 786.78 148.734C787.686 149.303 788.757 149.812 790 150.249C791.244 150.685 792.685 151.036 794.312 151.294C795.946 151.552 797.824 151.684 799.946 151.684L799.98 151.691Z" fill="black"/>
<path d="M878.397 151.691C880.831 151.691 883.463 151.459 886.287 150.99C889.111 150.52 891.729 149.693 894.137 148.503C896.544 147.312 898.541 145.705 900.115 143.682C901.695 141.658 902.489 139.072 902.489 135.91C902.489 134.462 902.178 133.192 901.556 132.101C900.935 131.01 899.91 130.07 898.488 129.264C897.06 128.457 895.155 127.756 892.774 127.16C890.387 126.565 887.464 126.036 883.992 125.567C875.336 124.475 868.683 122.339 864.021 119.158C859.358 115.97 857.024 111.473 857.024 105.672C857.024 101.268 858.036 97.4846 860.053 94.3233C862.076 91.1619 864.728 88.5693 868.022 86.5522C871.308 84.5284 875.038 83.0403 879.211 82.0813C883.377 81.1223 887.643 80.6461 891.994 80.6461C895.36 80.6461 898.336 80.9305 900.928 81.4993C903.521 82.068 905.789 82.8088 907.726 83.7148C909.671 84.6209 911.311 85.6527 912.66 86.8233C914.009 87.9874 915.12 89.191 915.999 90.4344C918.069 93.2849 919.286 96.5521 919.65 100.229H907.217C906.906 98.47 906.126 96.9159 904.883 95.5667C903.845 94.3762 902.264 93.2982 900.141 92.3392C898.012 91.3802 895.089 90.904 891.359 90.904C889.23 90.904 886.902 91.0958 884.362 91.486C881.823 91.8696 879.469 92.5971 877.293 93.6619C875.117 94.7201 873.292 96.1486 871.811 97.9343C870.336 99.7267 869.595 102.015 869.595 104.813C869.595 107.61 870.905 109.674 873.517 111.301C876.136 112.934 880.368 114.092 886.227 114.76C890.632 115.282 894.593 116.043 898.118 117.048C901.642 118.06 904.645 119.396 907.131 121.049C909.618 122.709 911.536 124.733 912.885 127.114C914.234 129.502 914.908 132.319 914.908 135.586C914.908 140.461 913.844 144.561 911.721 147.908C909.591 151.248 906.787 153.959 903.289 156.029C899.791 158.106 895.83 159.607 891.392 160.54C886.968 161.472 882.418 161.942 877.756 161.942C873.92 161.942 870.554 161.658 867.651 161.089C864.748 160.52 862.235 159.779 860.112 158.873C857.983 157.967 856.197 156.935 854.749 155.765C853.294 154.601 852.104 153.397 851.171 152.154C848.996 149.303 847.799 146.043 847.594 142.359H860.026C860.496 144.125 861.448 145.679 862.903 147.021C863.525 147.59 864.292 148.166 865.198 148.734C866.104 149.303 867.175 149.812 868.418 150.249C869.662 150.685 871.103 151.036 872.73 151.294C874.364 151.552 876.242 151.684 878.364 151.684L878.397 151.691Z" fill="black"/>
<path d="M525.913 111.75L485.223 41.0828H471.382L517.442 120.223L525.913 111.75Z" fill="#666667"/>
<path d="M516.701 119.052L434.633 201.75H449.704L523.38 127.676L516.701 119.052Z" fill="#666667"/>
</svg>
